<svg width="64" height="64" viewBox="0 0 64 64" fill="none" xmlns="http://www.w3.org/2000/svg">
<path d="M41.2212 45.847C41.2212 43.4064 40.0551 41.3044 38.3745 40.3418C35.2808 38.2776 28.5747 36.8477 20.8005 36.8477C13.0264 36.8477 6.32025 38.2776 3.22652 40.3418C1.5459 41.3019 0.379883 43.4064 0.379883 45.847C0.379883 47.6383 1.00884 49.2502 2.00741 50.3593C4.15566 52.9768 11.7542 54.9121 20.8005 54.9121C29.8469 54.9121 37.4433 52.9768 39.5936 50.3593C40.5922 49.2502 41.2212 47.6383 41.2212 45.847Z" fill="#6FA4E8"/>
<path d="M21.1932 47.0577C30.953 47.0577 38.8649 44.9479 38.8649 42.3453C38.8649 39.7426 30.953 37.6328 21.1932 37.6328C11.4334 37.6328 3.52148 39.7426 3.52148 42.3453C3.52148 44.9479 11.4334 47.0577 21.1932 47.0577Z" fill="#4686D8"/>
<path d="M41.2212 36.5931C41.2212 34.1525 40.0551 32.0505 38.3745 31.0879C35.2808 29.0237 28.5747 27.5938 20.8005 27.5938C13.0264 27.5938 6.32025 29.0237 3.22652 31.0879C1.5459 32.048 0.379883 34.1525 0.379883 36.5931C0.379883 38.3844 1.00884 39.9963 2.00741 41.1054C4.15566 43.7229 11.7542 45.6582 20.8005 45.6582C29.8469 45.6582 37.4433 43.7229 39.5936 41.1054C40.5922 39.9963 41.2212 38.3844 41.2212 36.5931Z" fill="#629AE4"/>
<path d="M21.1932 37.8077C30.953 37.8077 38.8649 35.6979 38.8649 33.0953C38.8649 30.4926 30.953 28.3828 21.1932 28.3828C11.4334 28.3828 3.52148 30.4926 3.52148 33.0953C3.52148 35.6979 11.4334 37.8077 21.1932 37.8077Z" fill="#4686D8"/>
<path d="M41.2212 27.3392C41.2212 24.8986 40.0551 22.7966 38.3745 21.834C35.2808 19.7698 28.5747 18.3398 20.8005 18.3398C13.0264 18.3398 6.32025 19.7698 3.22652 21.834C1.5459 22.794 0.379883 24.8986 0.379883 27.3392C0.379883 29.1305 1.00884 30.7424 2.00741 31.8515C4.15566 34.469 11.7542 36.4043 20.8005 36.4043C29.8469 36.4043 37.4433 34.469 39.5936 31.8515C40.5922 30.7424 41.2212 29.1305 41.2212 27.3392Z" fill="#6FA4E8"/>
<path d="M21.1932 28.5538C30.953 28.5538 38.8649 26.444 38.8649 23.8414C38.8649 21.2387 30.953 19.1289 21.1932 19.1289C11.4334 19.1289 3.52148 21.2387 3.52148 23.8414C3.52148 26.444 11.4334 28.5538 21.1932 28.5538Z" fill="#4686D8"/>
<path d="M41.2212 18.0853C41.2212 15.6447 40.0551 13.5427 38.3745 12.5801C35.2808 10.5159 28.5747 9.08594 20.8005 9.08594C13.0264 9.08594 6.32025 10.5159 3.22652 12.5801C1.5459 13.5401 0.379883 15.6447 0.379883 18.0853C0.379883 19.8766 1.00884 21.4885 2.00741 22.5976C4.15566 25.2151 11.7542 27.1503 20.8005 27.1503C29.8469 27.1503 37.4433 25.2151 39.5936 22.5976C40.5922 21.4885 41.2212 19.8766 41.2212 18.0853Z" fill="#629AE4"/>
<path d="M21.1932 19.2999C30.953 19.2999 38.8649 17.1901 38.8649 14.5875C38.8649 11.9848 30.953 9.875 21.1932 9.875C11.4334 9.875 3.52148 11.9848 3.52148 14.5875C3.52148 17.1901 11.4334 19.2999 21.1932 19.2999Z" fill="#498ADD"/>
<path d="M63.9995 54.933C63.9995 52.4924 62.8335 50.3903 61.1528 49.4277C58.0591 47.3636 51.353 45.9336 43.5788 45.9336C35.8047 45.9336 29.0986 47.3636 26.0048 49.4277C24.3242 50.3878 23.1582 52.4924 23.1582 54.933C23.1582 56.7242 23.7872 58.3361 24.7857 59.4453C26.934 62.0627 34.5325 63.998 43.5788 63.998C52.6252 63.998 60.2217 62.0627 62.372 59.4453C63.3705 58.3361 63.9995 56.7242 63.9995 54.933Z" fill="#76ADF3"/>
<path d="M43.9715 56.1476C53.7313 56.1476 61.6432 54.0377 61.6432 51.4351C61.6432 48.8325 53.7313 46.7227 43.9715 46.7227C34.2117 46.7227 26.2998 48.8325 26.2998 51.4351C26.2998 54.0377 34.2117 56.1476 43.9715 56.1476Z" fill="#4686D8"/>
<path d="M63.6206 45.847C63.6206 43.4064 62.4546 41.3044 60.7739 40.3418C57.6802 38.2776 50.9741 36.8477 43.1999 36.8477C35.4258 36.8477 28.7197 38.2776 25.6259 40.3418C23.9453 41.3019 22.7793 43.4064 22.7793 45.847C22.7793 47.6383 23.4083 49.2502 24.4068 50.3593C26.5551 52.9768 34.1536 54.9121 43.1999 54.9121C52.2463 54.9121 59.8428 52.9768 61.993 50.3593C62.9916 49.2502 63.6206 47.6383 63.6206 45.847Z" fill="#629AE4"/>
<path d="M43.5926 47.0577C53.3524 47.0577 61.2643 44.9479 61.2643 42.3453C61.2643 39.7426 53.3524 37.6328 43.5926 37.6328C33.8328 37.6328 25.9209 39.7426 25.9209 42.3453C25.9209 44.9479 33.8328 47.0577 43.5926 47.0577Z" fill="#4686D8"/>
<path d="M63.6206 36.5931C63.6206 34.1525 62.4546 32.0505 60.7739 31.0879C57.6802 29.0237 50.9741 27.5938 43.1999 27.5938C35.4258 27.5938 28.7197 29.0237 25.6259 31.0879C23.9453 32.048 22.7793 34.1525 22.7793 36.5931C22.7793 38.3844 23.4083 39.9963 24.4068 41.1054C26.5551 43.7229 34.1536 45.6582 43.1999 45.6582C52.2463 45.6582 59.8428 43.7229 61.993 41.1054C62.9916 39.9963 63.6206 38.3844 63.6206 36.5931Z" fill="#76ADF3"/>
<path d="M43.5926 37.8077C53.3524 37.8077 61.2643 35.6979 61.2643 33.0953C61.2643 30.4926 53.3524 28.3828 43.5926 28.3828C33.8328 28.3828 25.9209 30.4926 25.9209 33.0953C25.9209 35.6979 33.8328 37.8077 43.5926 37.8077Z" fill="#659FEB"/>
</svg>
