<svg width="60" height="60" viewBox="0 0 60 60" fill="none" xmlns="http://www.w3.org/2000/svg">
<rect width="60" height="60" rx="8" fill="#FAE100"/>
<rect x="46" y="13" width="2" height="14" rx="1" fill="black"/>
<rect x="54" y="19" width="2" height="14" rx="1" transform="rotate(90 54 19)" fill="black"/>
<path d="M11.3164 45.7305C11.3164 46.418 11.2188 47.0938 11.0234 47.7578C10.8281 48.4219 10.5488 49.0176 10.1855 49.5449C9.82227 50.0723 9.39062 50.4805 8.89062 50.7695L8.33984 50.0898C8.80078 49.8242 9.20117 49.459 9.54102 48.9941C9.88086 48.5293 10.1426 48.0137 10.3262 47.4473C10.5098 46.8809 10.6016 46.3086 10.6016 45.7305V45.168H11.3164V45.7305ZM11.4688 45.7305C11.4688 46.2852 11.5605 46.832 11.7441 47.3711C11.9277 47.9102 12.1934 48.3984 12.541 48.8359C12.8887 49.2734 13.293 49.6172 13.7539 49.8672L13.2148 50.5586C12.7148 50.2773 12.2793 49.8867 11.9082 49.3867C11.5371 48.8867 11.2539 48.3203 11.0586 47.6875C10.8633 47.0547 10.7656 46.4023 10.7656 45.7305V45.168H11.4688V45.7305ZM13.4727 45.25H8.58594V44.4883H13.4727V45.25ZM11.4805 45.0391H10.6016V42.918H11.4805V45.0391ZM17.375 52.9492H16.4844V42.5312H17.375V52.9492ZM16.8242 47.5352H14.7969V46.75H16.8242V47.5352ZM15.0664 52.4219H14.1875V42.7539H15.0664V52.4219ZM20.3398 47.207H19.4141V43.0469H20.3398V47.207ZM20.2109 46.7031C21.1172 46.7031 21.9336 46.6738 22.6602 46.6152C23.3867 46.5566 24.1211 46.457 24.8633 46.3164L25.0039 47.0781C24.2148 47.2266 23.4453 47.332 22.6953 47.3945C21.9453 47.457 21.1172 47.4844 20.2109 47.4766H19.4141V46.7031H20.2109ZM26.7266 45.0391H23.5039V44.2891H26.7266V45.0391ZM27.4297 47.9336H26.5039V42.5312H27.4297V47.9336ZM27.4297 50.9102H21.6172V52.4688H20.7031V50.1953H26.5039V49.1641H20.6797V48.4141H27.4297V50.9102ZM27.8047 52.8086H20.7031V52.0586H27.8047V52.8086ZM37.8125 52.9727H36.9102V49.1406H37.8125V52.9727ZM42.1133 49.6094H32.6211V48.8359H42.1133V49.6094ZM37.7188 44.5938C37.7188 45.1719 37.5254 45.7012 37.1387 46.1816C36.752 46.6621 36.2422 47.0605 35.6094 47.377C34.9766 47.6934 34.293 47.9102 33.5586 48.0273L33.2188 47.2891C33.8438 47.2031 34.4395 47.0273 35.0059 46.7617C35.5723 46.4961 36.0312 46.1738 36.3828 45.7949C36.7344 45.416 36.9102 45.0156 36.9102 44.5938V44.3125H37.7188V44.5938ZM37.8242 44.5938C37.8242 45.0078 37.998 45.4062 38.3457 45.7891C38.6934 46.1719 39.1504 46.4961 39.7168 46.7617C40.2832 47.0273 40.8789 47.2031 41.5039 47.2891L41.1641 48.0273C40.4375 47.918 39.7578 47.7012 39.125 47.377C38.4922 47.0527 37.9844 46.6504 37.6016 46.1699C37.2188 45.6895 37.0273 45.1641 37.0273 44.5938V44.3125H37.8242V44.5938ZM41.1992 44.582H33.5469V43.832H41.1992V44.582ZM37.8125 44.0898H36.9102V42.5312H37.8125V44.0898ZM51.0547 52.9492H50.1406V42.5312H51.0547V52.9492ZM52.7422 47.5469H50.8203V46.7734H52.7422V47.5469ZM48.3594 43.6562C48.3594 44.6719 48.1934 45.6289 47.8613 46.5273C47.5293 47.4258 47.0078 48.2539 46.2969 49.0117C45.5859 49.7695 44.6797 50.4219 43.5781 50.9688L43.0625 50.2422C44.0312 49.7578 44.8418 49.1914 45.4941 48.543C46.1465 47.8945 46.6367 47.1738 46.9648 46.3809C47.293 45.5879 47.457 44.7305 47.457 43.8086V43.6562H48.3594ZM47.9258 44.4297H43.543V43.6562H47.9258V44.4297Z" fill="black"/>
<path d="M19.0667 6C11.8507 6 6 11.4827 6 18.2451C6 23.2405 8.06447 25.6234 10.8917 27.7964L10.9055 27.802V33.6627C10.9055 33.9399 11.2178 34.0967 11.4362 33.9343L16.3914 30.2045L16.4992 30.2521C17.3311 30.4061 18.1878 30.4901 19.0667 30.4901C26.2826 30.4901 32.1333 25.0074 32.1333 18.2451C32.1333 11.4827 26.2826 6 19.0667 6Z" fill="black"/>
<path d="M26.4425 16.7478C26.9262 17.2518 27.1694 17.935 27.1694 18.8199V23.0061H25.4338V19.0383C25.4338 18.1254 24.9087 17.6326 24.1017 17.6326C23.2007 17.6326 22.6204 18.1926 22.6204 19.3239V23.0061H20.8848V13.3008H22.6204V16.9522C23.0377 16.3109 23.7092 15.9973 24.6268 15.9973C25.3675 15.9973 25.9727 16.2437 26.4425 16.7478Z" fill="#FAE100"/>
<path d="M17.3914 19.3711C17.0625 20.5723 15.9654 21.348 14.6858 21.348C13.0082 21.348 11.6126 20.0403 11.6126 18.2314C11.6126 16.4225 12.8396 15.0896 14.6858 15.0896C15.9902 15.0896 17.1233 15.8849 17.4108 17.1617H19.3011C18.8589 14.8124 17.0736 13.2695 14.6858 13.2695C11.9387 13.2695 9.76367 15.3444 9.76367 18.2314C9.76367 21.1183 11.9415 23.1933 14.6858 23.1933C17.0487 23.1933 18.823 21.6784 19.2873 19.3711H17.3914Z" fill="#FAE100"/>
</svg>
