<svg width="67" height="65" viewBox="0 0 67 65" fill="none" xmlns="http://www.w3.org/2000/svg">
<g clip-path="url(#clip0_2015_3330)">
<g filter="url(#filter0_i_2015_3330)">
<path d="M36.7191 12.2404C36.7191 12.2404 11.1597 33.8341 17.3158 51.8279C17.3539 51.9384 17.4356 52.0297 17.5429 52.0745C17.8142 52.1882 18.3862 52.293 19.1709 51.7107C19.3192 51.6002 19.3793 51.4074 19.3176 51.2335C18.6262 49.2872 15.1412 37.1988 29.1302 22.9339L36.7197 12.2408L36.7191 12.2404Z" fill="url(#paint0_linear_2015_3330)"/>
</g>
<g filter="url(#filter1_i_2015_3330)">
<path d="M40.1374 5.95874C41.0067 5.9005 41.7601 6.55934 41.8184 7.42865C42.0018 10.1657 39.9281 12.5372 37.191 12.7206C36.3217 12.7788 35.5682 12.12 35.51 11.2507C35.3266 8.51359 37.4003 6.14211 40.1374 5.95874Z" fill="url(#paint1_linear_2015_3330)"/>
</g>
<g filter="url(#filter2_i_2015_3330)">
<path d="M41.1032 11.1195C41.8995 11.4729 42.2594 12.4068 41.9061 13.2032C40.7935 15.7107 37.8539 16.8434 35.3464 15.7308C34.5501 15.3774 34.1902 14.4435 34.5435 13.6471C35.6561 11.1396 38.5957 10.007 41.1032 11.1195Z" fill="url(#paint2_linear_2015_3330)"/>
</g>
<g filter="url(#filter3_i_2015_3330)">
<path d="M36.452 7.59897C38.033 9.84077 37.4964 12.945 35.2546 14.526C34.5426 15.0281 33.5564 14.8576 33.0542 14.1456C31.4732 11.9038 32.0098 8.79961 34.2516 7.21861C34.9636 6.71648 35.9499 6.88696 36.452 7.59897Z" fill="url(#paint3_linear_2015_3330)"/>
</g>
<g filter="url(#filter4_i_2015_3330)">
<path d="M38.7393 14.6699C39.6521 15.0749 40.0637 16.1445 39.659 17.0566C38.3841 19.9299 35.0166 21.2274 32.144 19.9528C31.2312 19.5478 30.8196 18.4783 31.2243 17.5661C32.4992 14.6929 35.8667 13.3953 38.7393 14.6699Z" fill="url(#paint4_linear_2015_3330)"/>
</g>
<g filter="url(#filter5_i_2015_3330)">
<path d="M33.4105 10.6362C35.2221 13.205 34.607 16.7606 32.0388 18.5718C31.2227 19.1473 30.0935 18.9516 29.5184 18.1361C27.7068 15.5673 28.3219 12.0118 30.8901 10.2006C31.7062 9.62504 32.8354 9.82073 33.4105 10.6362Z" fill="url(#paint5_linear_2015_3330)"/>
</g>
<g filter="url(#filter6_i_2015_3330)">
<path d="M35.0632 19.1152L35.3577 19.2459C36.2896 19.6594 36.7103 20.7513 36.2969 21.6831L36.1662 21.9776C34.8645 24.9113 31.4263 26.2361 28.4926 24.9344L28.1981 24.8038C27.2662 24.3903 26.8455 23.2984 27.259 22.3665L27.3897 22.072C28.6914 19.1384 32.1296 17.8135 35.0632 19.1152Z" fill="url(#paint6_linear_2015_3330)"/>
</g>
<g filter="url(#filter7_i_2015_3330)">
<path d="M29.5722 14.8599L29.7579 15.1232C31.6076 17.746 30.98 21.3768 28.3572 23.2265L28.0939 23.4122C27.2608 23.9998 26.1077 23.8005 25.5201 22.9673L25.3345 22.704C23.4847 20.0812 24.1124 16.4504 26.7352 14.6007L26.9985 14.415C27.8316 13.8275 28.9847 14.0268 29.5722 14.8599Z" fill="url(#paint7_linear_2015_3330)"/>
</g>
<g filter="url(#filter8_i_2015_3330)">
<path d="M31.6233 23.3842L32.4044 23.7308C33.3172 24.1358 33.7288 25.2054 33.3241 26.1175L32.9775 26.8987C31.6131 29.9735 28.0087 31.3624 24.9338 29.9981L24.1527 29.6515C23.2399 29.2465 22.8283 28.1769 23.2331 27.2647L23.5796 26.4836C24.944 23.4088 28.5484 22.0199 31.6233 23.3842Z" fill="url(#paint8_linear_2015_3330)"/>
</g>
<g filter="url(#filter9_i_2015_3330)">
<path d="M25.7338 18.6528L26.132 19.2176C28.1229 22.0406 27.4478 25.9493 24.6242 27.9406L24.0595 28.3388C23.2434 28.9143 22.1142 28.7187 21.5391 27.9031L21.1408 27.3384C19.1499 24.5154 19.8251 20.6067 22.6486 18.6154L23.2134 18.2172C24.0294 17.6416 25.1586 17.8373 25.7338 18.6528Z" fill="url(#paint9_linear_2015_3330)"/>
</g>
</g>
<g clip-path="url(#clip1_2015_3330)">
<g filter="url(#filter10_i_2015_3330)">
<path d="M24.4596 9.88971C24.4596 9.88971 6.03167 37.8179 17.0148 53.3436C17.0826 53.4388 17.1867 53.5034 17.3023 53.5161C17.5946 53.5486 18.173 53.4877 18.7614 52.7077C18.8725 52.5598 18.8758 52.3579 18.7675 52.2084C17.5551 50.5364 10.8007 39.9225 20.1964 22.2901L24.4603 9.88999L24.4596 9.88971Z" fill="url(#paint10_linear_2015_3330)"/>
</g>
<g filter="url(#filter11_i_2015_3330)">
<path d="M25.9661 2.89801C26.7837 2.59685 27.6924 3.01632 27.9936 3.83387C28.9418 6.40799 27.6215 9.26822 25.0474 10.2164C24.2299 10.5176 23.3211 10.0981 23.02 9.28058C22.0717 6.70646 23.392 3.84623 25.9661 2.89801Z" fill="url(#paint11_linear_2015_3330)"/>
</g>
<g filter="url(#filter12_i_2015_3330)">
<path d="M28.3487 7.57688C29.2124 7.69117 29.8212 8.48562 29.7069 9.34935C29.3471 12.0689 26.8465 13.985 24.127 13.6251C23.2633 13.5108 22.6545 12.7164 22.7688 11.8526C23.1287 9.13311 25.6292 7.21702 28.3487 7.57688Z" fill="url(#paint12_linear_2015_3330)"/>
</g>
<g filter="url(#filter13_i_2015_3330)">
<path d="M22.8934 5.51144C25.0427 7.21605 25.4038 10.3455 23.6992 12.4948C23.1578 13.1775 22.1635 13.2922 21.4809 12.7508C19.3316 11.0462 18.9705 7.91672 20.6751 5.76741C21.2165 5.08478 22.2108 4.97005 22.8934 5.51144Z" fill="url(#paint13_linear_2015_3330)"/>
</g>
<g filter="url(#filter14_i_2015_3330)">
<path d="M27.0828 11.6494C28.0728 11.7804 28.7694 12.6903 28.6385 13.6796C28.2262 16.7958 25.3616 18.9908 22.2461 18.5786C21.2562 18.4476 20.5595 17.5376 20.6904 16.5483C21.1027 13.4321 23.9673 11.2371 27.0828 11.6494Z" fill="url(#paint14_linear_2015_3330)"/>
</g>
<g filter="url(#filter15_i_2015_3330)">
<path d="M20.8331 9.28402C23.2959 11.2373 23.709 14.8219 21.7562 17.2842C21.1357 18.0666 19.9971 18.1975 19.2153 17.5774C16.7525 15.6241 16.3393 12.0395 18.2921 9.57722C18.9127 8.79481 20.0512 8.66393 20.8331 9.28402Z" fill="url(#paint15_linear_2015_3330)"/>
</g>
<g filter="url(#filter16_i_2015_3330)">
<path d="M24.8115 16.9523L25.1309 16.9945C26.1416 17.1283 26.8533 18.0571 26.7196 19.0677L26.6773 19.3872C26.2563 22.5689 23.3316 24.81 20.1499 24.389L19.8305 24.3467C18.8198 24.213 18.1081 23.2842 18.2418 22.2735L18.2841 21.9541C18.7051 18.7724 21.6298 16.5312 24.8115 16.9523Z" fill="url(#paint16_linear_2015_3330)"/>
</g>
<g filter="url(#filter17_i_2015_3330)">
<path d="M18.3416 14.4182L18.594 14.6184C21.1086 16.6127 21.531 20.273 19.5367 22.7877L19.3365 23.0401C18.703 23.8389 17.5405 23.973 16.7418 23.3395L16.4893 23.1393C13.9747 21.145 13.5523 17.4846 15.5467 14.97L15.7469 14.7176C16.3804 13.9188 17.5428 13.7847 18.3416 14.4182Z" fill="url(#paint17_linear_2015_3330)"/>
</g>
<g filter="url(#filter18_i_2015_3330)">
<path d="M22.7155 22.0174L23.5627 22.1295C24.5527 22.2605 25.2493 23.1704 25.1184 24.1597L25.0063 25.0069C24.565 28.3418 21.499 30.6913 18.1641 30.25L17.3169 30.1379C16.3269 30.0069 15.6302 29.0969 15.7612 28.1076L15.8733 27.2604C16.3145 23.9256 19.3806 21.5761 22.7155 22.0174Z" fill="url(#paint18_linear_2015_3330)"/>
</g>
<g filter="url(#filter19_i_2015_3330)">
<path d="M15.7296 19.1414L16.271 19.5708C18.9775 21.7174 19.4327 25.6578 17.2857 28.3649L16.8563 28.9063C16.2358 29.6887 15.0972 29.8196 14.3154 29.1995L13.774 28.7701C11.0674 26.6235 10.6123 22.6831 12.7592 19.9761L13.1886 19.4346C13.8092 18.6522 14.9477 18.5214 15.7296 19.1414Z" fill="url(#paint19_linear_2015_3330)"/>
</g>
</g>
<g clip-path="url(#clip2_2015_3330)">
<g filter="url(#filter20_i_2015_3330)">
<path d="M12.3845 9.2086C12.3845 9.2086 2.61981 41.2121 17.5501 52.9919C17.642 53.0641 17.7601 53.0965 17.8746 53.076C18.1641 53.0244 18.7016 52.8022 19.0451 51.8875C19.1098 51.7142 19.0557 51.5196 18.9096 51.4069C17.2733 50.1466 7.78965 41.88 11.8074 22.3086L12.3852 9.20868L12.3845 9.2086Z" fill="url(#paint20_linear_2015_3330)"/>
</g>
<g filter="url(#filter21_i_2015_3330)">
<path d="M11.8501 2.07714C12.5489 1.55679 13.5393 1.70174 14.0596 2.40054C15.698 4.60077 15.2417 7.7178 13.0415 9.35616C12.3427 9.87651 11.3524 9.73156 10.832 9.03276C9.19367 6.83253 9.64992 3.71551 11.8501 2.07714Z" fill="url(#paint21_linear_2015_3330)"/>
</g>
<g filter="url(#filter22_i_2015_3330)">
<path d="M15.4606 5.89004C16.3213 5.75506 17.1301 6.34459 17.2651 7.20533C17.6901 9.91542 15.8346 12.4612 13.1245 12.8862C12.2637 13.0212 11.4549 12.4316 11.3199 11.5709C10.8949 8.86082 12.7505 6.31504 15.4606 5.89004Z" fill="url(#paint22_linear_2015_3330)"/>
</g>
<g filter="url(#filter23_i_2015_3330)">
<path d="M9.64306 5.45394C12.1871 6.48012 13.4197 9.37923 12.3935 11.9233C12.0676 12.7313 11.1465 13.1229 10.3385 12.797C7.79443 11.7708 6.56187 8.87168 7.58805 6.32763C7.91397 5.51962 8.83505 5.12802 9.64306 5.45394Z" fill="url(#paint23_linear_2015_3330)"/>
</g>
<g filter="url(#filter24_i_2015_3330)">
<path d="M15.3992 10.1539C16.3857 9.99917 17.3116 10.6746 17.4662 11.6605C17.9532 14.7659 15.8275 17.6823 12.7228 18.1691C11.7362 18.3239 10.8104 17.6484 10.6558 16.6626C10.1688 13.5572 12.2945 10.6408 15.3992 10.1539Z" fill="url(#paint24_linear_2015_3330)"/>
</g>
<g filter="url(#filter25_i_2015_3330)">
<path d="M8.73494 9.65508C11.6501 10.8309 13.0614 14.1518 11.8858 17.0663C11.5123 17.9924 10.4574 18.4404 9.53193 18.0671C6.61679 16.8912 5.20545 13.5703 6.38105 10.6558C6.75461 9.72973 7.80947 9.28179 8.73494 9.65508Z" fill="url(#paint25_linear_2015_3330)"/>
</g>
<g filter="url(#filter26_i_2015_3330)">
<path d="M14.7222 15.8823L15.0405 15.8324C16.0477 15.6744 16.9933 16.3637 17.1513 17.3709L17.2012 17.6892C17.6984 20.8599 15.5281 23.8375 12.3574 24.3347L12.0391 24.3847C11.0319 24.5426 10.0863 23.8534 9.92835 22.8462L9.87844 22.5279C9.3812 19.3572 11.5515 16.3795 14.7222 15.8823Z" fill="url(#paint26_linear_2015_3330)"/>
</g>
<g filter="url(#filter27_i_2015_3330)">
<path d="M7.79973 15.2846L8.09853 15.4052C11.075 16.6058 12.5166 19.9966 11.316 22.9731L11.1955 23.2719C10.8141 24.2174 9.73727 24.6752 8.7918 24.2938L8.493 24.1733C5.51655 22.9727 4.07491 19.5818 5.2755 16.6054L5.39603 16.3066C5.7774 15.3611 6.85426 14.9033 7.79973 15.2846Z" fill="url(#paint27_linear_2015_3330)"/>
</g>
<g filter="url(#filter28_i_2015_3330)">
<path d="M14.1467 21.335L14.991 21.2026C15.9775 21.0478 16.9034 21.7233 17.058 22.7091L17.1904 23.5534C17.7115 26.8767 15.4363 29.9983 12.113 30.5195L11.2687 30.6519C10.2822 30.8066 9.35635 30.1311 9.20174 29.1453L9.06935 28.301C8.54817 24.9777 10.8234 21.8561 14.1467 21.335Z" fill="url(#paint28_linear_2015_3330)"/>
</g>
<g filter="url(#filter29_i_2015_3330)">
<path d="M6.6324 20.5535L7.27325 20.812C10.4769 22.1042 12.0293 25.7544 10.7368 28.9587L10.4783 29.5995C10.1047 30.5256 9.04987 30.9736 8.12441 30.6003L7.48356 30.3418C4.27994 29.0496 2.72753 25.3994 4.02001 22.1951L4.27851 21.5543C4.65207 20.6282 5.70693 20.1802 6.6324 20.5535Z" fill="url(#paint29_linear_2015_3330)"/>
</g>
</g>
<g clip-path="url(#clip3_2015_3330)">
<path d="M66.9634 49.5262V33.0508L44.7809 36.1226C41.1461 35.7315 36.6382 35.7361 31.5659 36.7791C31.5659 36.7791 29.6425 37.3166 27.4957 38.5152L12.0002 40.6606V58.1082C11.991 59.062 12.2513 60.0776 12.9055 61.1435C12.9055 61.1435 17.0517 69.8215 52.3386 61.1435C52.3386 61.1435 66.1618 57.358 66.9611 50.4412C66.9795 50.2719 66.9956 50.1049 66.9979 49.9334C66.9979 49.9334 66.9979 49.787 66.9611 49.5262H66.9634Z" fill="url(#paint30_linear_2015_3330)"/>
<path d="M12.9075 44.2613C12.9075 44.2613 17.0537 52.9393 52.3406 44.2613C52.3406 44.2613 66.8433 40.2905 66.9999 33.0512C66.9999 33.0512 67.0782 26.434 54.2226 21.53C54.2226 21.53 44.8152 17.1704 31.5656 19.8946C31.5656 19.8946 25.9221 21.4683 23.1856 25.2469C23.1856 25.2469 21.6469 27.4976 20.9627 27.7927C20.9627 27.7927 19.4678 28.8951 19.5092 30.2126C19.5092 30.2126 19.6797 32.93 18.0143 33.7351C18.0143 33.7351 9.20812 38.2342 12.9075 44.259V44.2613Z" fill="url(#paint31_linear_2015_3330)"/>
<g filter="url(#filter30_di_2015_3330)">
<path d="M42.7502 44.3362C42.7502 44.3362 21.5145 48.8422 15.6199 43.9656C15.6199 43.9656 11.8307 40.8069 20.2038 36.628C20.2038 36.628 24.5067 34.3521 28.9501 34.6311C28.9501 34.6311 30.6339 34.606 32.4583 36.0241C32.4583 36.0241 35.4505 39.0731 42.0016 41.2254C42.0016 41.2254 46.6961 42.8128 47.5806 42.854C47.5806 42.854 46.7513 43.6134 42.7479 44.3385L42.7502 44.3362Z" fill="url(#paint32_linear_2015_3330)"/>
</g>
<g filter="url(#filter31_di_2015_3330)">
<path d="M26.1508 32.2061C26.1508 32.2061 22.9305 32.8305 22.1082 31.6297C22.1082 31.6297 21.0923 29.9943 25.4021 28.432C25.4021 28.432 29.0831 27.6338 29.2996 30.4014C29.2996 30.4014 29.5184 31.5816 26.1531 32.2084L26.1508 32.2061Z" fill="url(#paint33_linear_2015_3330)"/>
</g>
<g filter="url(#filter32_di_2015_3330)">
<path d="M26.3441 25.9431C26.3441 25.9431 30.6263 21.0986 43.0558 21.5446C43.0558 21.5446 58.7977 22.7478 63.2964 31.1307C63.2964 31.1307 66.3761 36.2497 56.9987 39.7882C56.9987 39.7882 54.0572 41.3687 48.8329 40.1313C48.8329 40.1313 35.3046 37.9675 32.5013 31.5081C32.5013 31.5081 30.6285 26.149 26.3418 25.9431H26.3441Z" fill="url(#paint34_linear_2015_3330)"/>
</g>
</g>
<defs>
<filter id="filter0_i_2015_3330" x="15.3584" y="11.2402" width="21.3613" height="40.9229" filterUnits="userSpaceOnUse" color-interpolation-filters="sRGB">
<feFlood flood-opacity="0" result="BackgroundImageFix"/>
<feBlend mode="normal" in="SourceGraphic" in2="BackgroundImageFix" result="shape"/>
<feColorMatrix in="SourceAlpha" type="matrix" values="0 0 0 0 0 0 0 0 0 0 0 0 0 0 0 0 0 0 127 0" result="hardAlpha"/>
<feOffset dx="-1" dy="-1"/>
<feGaussianBlur stdDeviation="0.5"/>
<feComposite in2="hardAlpha" operator="arithmetic" k2="-1" k3="1"/>
<feColorMatrix type="matrix" values="0 0 0 0 0 0 0 0 0 0 0 0 0 0 0 0 0 0 0.2 0"/>
<feBlend mode="normal" in2="shape" result="effect1_innerShadow_2015_3330"/>
</filter>
<filter id="filter1_i_2015_3330" x="34.499" y="4.95508" width="7.33105" height="7.76953" filterUnits="userSpaceOnUse" color-interpolation-filters="sRGB">
<feFlood flood-opacity="0" result="BackgroundImageFix"/>
<feBlend mode="normal" in="SourceGraphic" in2="BackgroundImageFix" result="shape"/>
<feColorMatrix in="SourceAlpha" type="matrix" values="0 0 0 0 0 0 0 0 0 0 0 0 0 0 0 0 0 0 127 0" result="hardAlpha"/>
<feOffset dx="-1" dy="-1"/>
<feGaussianBlur stdDeviation="1"/>
<feComposite in2="hardAlpha" operator="arithmetic" k2="-1" k3="1"/>
<feColorMatrix type="matrix" values="0 0 0 0 0 0 0 0 0 0 0 0 0 0 0 0 0 0 0.16 0"/>
<feBlend mode="normal" in2="shape" result="effect1_innerShadow_2015_3330"/>
</filter>
<filter id="filter2_i_2015_3330" x="33.4072" y="9.69141" width="8.63477" height="6.4668" filterUnits="userSpaceOnUse" color-interpolation-filters="sRGB">
<feFlood flood-opacity="0" result="BackgroundImageFix"/>
<feBlend mode="normal" in="SourceGraphic" in2="BackgroundImageFix" result="shape"/>
<feColorMatrix in="SourceAlpha" type="matrix" values="0 0 0 0 0 0 0 0 0 0 0 0 0 0 0 0 0 0 127 0" result="hardAlpha"/>
<feOffset dx="-1" dy="-1"/>
<feGaussianBlur stdDeviation="1"/>
<feComposite in2="hardAlpha" operator="arithmetic" k2="-1" k3="1"/>
<feColorMatrix type="matrix" values="0 0 0 0 0 0 0 0 0 0 0 0 0 0 0 0 0 0 0.16 0"/>
<feBlend mode="normal" in2="shape" result="effect1_innerShadow_2015_3330"/>
</filter>
<filter id="filter3_i_2015_3330" x="31.1465" y="5.93066" width="6.21387" height="8.88379" filterUnits="userSpaceOnUse" color-interpolation-filters="sRGB">
<feFlood flood-opacity="0" result="BackgroundImageFix"/>
<feBlend mode="normal" in="SourceGraphic" in2="BackgroundImageFix" result="shape"/>
<feColorMatrix in="SourceAlpha" type="matrix" values="0 0 0 0 0 0 0 0 0 0 0 0 0 0 0 0 0 0 127 0" result="hardAlpha"/>
<feOffset dx="-1" dy="-1"/>
<feGaussianBlur stdDeviation="1"/>
<feComposite in2="hardAlpha" operator="arithmetic" k2="-1" k3="1"/>
<feColorMatrix type="matrix" values="0 0 0 0 0 0 0 0 0 0 0 0 0 0 0 0 0 0 0.16 0"/>
<feBlend mode="normal" in2="shape" result="effect1_innerShadow_2015_3330"/>
</filter>
<filter id="filter4_i_2015_3330" x="30.0684" y="13.1797" width="9.74609" height="7.26367" filterUnits="userSpaceOnUse" color-interpolation-filters="sRGB">
<feFlood flood-opacity="0" result="BackgroundImageFix"/>
<feBlend mode="normal" in="SourceGraphic" in2="BackgroundImageFix" result="shape"/>
<feColorMatrix in="SourceAlpha" type="matrix" values="0 0 0 0 0 0 0 0 0 0 0 0 0 0 0 0 0 0 127 0" result="hardAlpha"/>
<feOffset dx="-1" dy="-1"/>
<feGaussianBlur stdDeviation="1"/>
<feComposite in2="hardAlpha" operator="arithmetic" k2="-1" k3="1"/>
<feColorMatrix type="matrix" values="0 0 0 0 0 0 0 0 0 0 0 0 0 0 0 0 0 0 0.16 0"/>
<feBlend mode="normal" in2="shape" result="effect1_innerShadow_2015_3330"/>
</filter>
<filter id="filter5_i_2015_3330" x="27.4775" y="8.87012" width="6.97363" height="10.0322" filterUnits="userSpaceOnUse" color-interpolation-filters="sRGB">
<feFlood flood-opacity="0" result="BackgroundImageFix"/>
<feBlend mode="normal" in="SourceGraphic" in2="BackgroundImageFix" result="shape"/>
<feColorMatrix in="SourceAlpha" type="matrix" values="0 0 0 0 0 0 0 0 0 0 0 0 0 0 0 0 0 0 127 0" result="hardAlpha"/>
<feOffset dx="-1" dy="-1"/>
<feGaussianBlur stdDeviation="1"/>
<feComposite in2="hardAlpha" operator="arithmetic" k2="-1" k3="1"/>
<feColorMatrix type="matrix" values="0 0 0 0 0 0 0 0 0 0 0 0 0 0 0 0 0 0 0.16 0"/>
<feBlend mode="normal" in2="shape" result="effect1_innerShadow_2015_3330"/>
</filter>
<filter id="filter6_i_2015_3330" x="26.0996" y="17.6143" width="10.3564" height="7.82031" filterUnits="userSpaceOnUse" color-interpolation-filters="sRGB">
<feFlood flood-opacity="0" result="BackgroundImageFix"/>
<feBlend mode="normal" in="SourceGraphic" in2="BackgroundImageFix" result="shape"/>
<feColorMatrix in="SourceAlpha" type="matrix" values="0 0 0 0 0 0 0 0 0 0 0 0 0 0 0 0 0 0 127 0" result="hardAlpha"/>
<feOffset dx="-1" dy="-1"/>
<feGaussianBlur stdDeviation="1"/>
<feComposite in2="hardAlpha" operator="arithmetic" k2="-1" k3="1"/>
<feColorMatrix type="matrix" values="0 0 0 0 0 0 0 0 0 0 0 0 0 0 0 0 0 0 0.16 0"/>
<feBlend mode="normal" in2="shape" result="effect1_innerShadow_2015_3330"/>
</filter>
<filter id="filter7_i_2015_3330" x="23.2725" y="13.0771" width="7.54785" height="10.6729" filterUnits="userSpaceOnUse" color-interpolation-filters="sRGB">
<feFlood flood-opacity="0" result="BackgroundImageFix"/>
<feBlend mode="normal" in="SourceGraphic" in2="BackgroundImageFix" result="shape"/>
<feColorMatrix in="SourceAlpha" type="matrix" values="0 0 0 0 0 0 0 0 0 0 0 0 0 0 0 0 0 0 127 0" result="hardAlpha"/>
<feOffset dx="-1" dy="-1"/>
<feGaussianBlur stdDeviation="1"/>
<feComposite in2="hardAlpha" operator="arithmetic" k2="-1" k3="1"/>
<feColorMatrix type="matrix" values="0 0 0 0 0 0 0 0 0 0 0 0 0 0 0 0 0 0 0.16 0"/>
<feBlend mode="normal" in2="shape" result="effect1_innerShadow_2015_3330"/>
</filter>
<filter id="filter8_i_2015_3330" x="22.0771" y="21.8594" width="11.4023" height="8.66309" filterUnits="userSpaceOnUse" color-interpolation-filters="sRGB">
<feFlood flood-opacity="0" result="BackgroundImageFix"/>
<feBlend mode="normal" in="SourceGraphic" in2="BackgroundImageFix" result="shape"/>
<feColorMatrix in="SourceAlpha" type="matrix" values="0 0 0 0 0 0 0 0 0 0 0 0 0 0 0 0 0 0 127 0" result="hardAlpha"/>
<feOffset dx="-1" dy="-1"/>
<feGaussianBlur stdDeviation="1"/>
<feComposite in2="hardAlpha" operator="arithmetic" k2="-1" k3="1"/>
<feColorMatrix type="matrix" values="0 0 0 0 0 0 0 0 0 0 0 0 0 0 0 0 0 0 0.16 0"/>
<feBlend mode="normal" in2="shape" result="effect1_innerShadow_2015_3330"/>
</filter>
<filter id="filter9_i_2015_3330" x="18.9971" y="16.8867" width="8.27832" height="11.7822" filterUnits="userSpaceOnUse" color-interpolation-filters="sRGB">
<feFlood flood-opacity="0" result="BackgroundImageFix"/>
<feBlend mode="normal" in="SourceGraphic" in2="BackgroundImageFix" result="shape"/>
<feColorMatrix in="SourceAlpha" type="matrix" values="0 0 0 0 0 0 0 0 0 0 0 0 0 0 0 0 0 0 127 0" result="hardAlpha"/>
<feOffset dx="-1" dy="-1"/>
<feGaussianBlur stdDeviation="1"/>
<feComposite in2="hardAlpha" operator="arithmetic" k2="-1" k3="1"/>
<feColorMatrix type="matrix" values="0 0 0 0 0 0 0 0 0 0 0 0 0 0 0 0 0 0 0.16 0"/>
<feBlend mode="normal" in2="shape" result="effect1_innerShadow_2015_3330"/>
</filter>
<filter id="filter10_i_2015_3330" x="12.5215" y="8.88965" width="11.9385" height="44.6328" filterUnits="userSpaceOnUse" color-interpolation-filters="sRGB">
<feFlood flood-opacity="0" result="BackgroundImageFix"/>
<feBlend mode="normal" in="SourceGraphic" in2="BackgroundImageFix" result="shape"/>
<feColorMatrix in="SourceAlpha" type="matrix" values="0 0 0 0 0 0 0 0 0 0 0 0 0 0 0 0 0 0 127 0" result="hardAlpha"/>
<feOffset dx="-1" dy="-1"/>
<feGaussianBlur stdDeviation="0.5"/>
<feComposite in2="hardAlpha" operator="arithmetic" k2="-1" k3="1"/>
<feColorMatrix type="matrix" values="0 0 0 0 0 0 0 0 0 0 0 0 0 0 0 0 0 0 0.2 0"/>
<feBlend mode="normal" in2="shape" result="effect1_innerShadow_2015_3330"/>
</filter>
<filter id="filter11_i_2015_3330" x="21.7129" y="1.80078" width="6.58789" height="8.51367" filterUnits="userSpaceOnUse" color-interpolation-filters="sRGB">
<feFlood flood-opacity="0" result="BackgroundImageFix"/>
<feBlend mode="normal" in="SourceGraphic" in2="BackgroundImageFix" result="shape"/>
<feColorMatrix in="SourceAlpha" type="matrix" values="0 0 0 0 0 0 0 0 0 0 0 0 0 0 0 0 0 0 127 0" result="hardAlpha"/>
<feOffset dx="-1" dy="-1"/>
<feGaussianBlur stdDeviation="1"/>
<feComposite in2="hardAlpha" operator="arithmetic" k2="-1" k3="1"/>
<feColorMatrix type="matrix" values="0 0 0 0 0 0 0 0 0 0 0 0 0 0 0 0 0 0 0.16 0"/>
<feBlend mode="normal" in2="shape" result="effect1_innerShadow_2015_3330"/>
</filter>
<filter id="filter12_i_2015_3330" x="21.7549" y="6.5332" width="7.96582" height="7.13574" filterUnits="userSpaceOnUse" color-interpolation-filters="sRGB">
<feFlood flood-opacity="0" result="BackgroundImageFix"/>
<feBlend mode="normal" in="SourceGraphic" in2="BackgroundImageFix" result="shape"/>
<feColorMatrix in="SourceAlpha" type="matrix" values="0 0 0 0 0 0 0 0 0 0 0 0 0 0 0 0 0 0 127 0" result="hardAlpha"/>
<feOffset dx="-1" dy="-1"/>
<feGaussianBlur stdDeviation="1"/>
<feComposite in2="hardAlpha" operator="arithmetic" k2="-1" k3="1"/>
<feColorMatrix type="matrix" values="0 0 0 0 0 0 0 0 0 0 0 0 0 0 0 0 0 0 0.16 0"/>
<feBlend mode="normal" in2="shape" result="effect1_innerShadow_2015_3330"/>
</filter>
<filter id="filter13_i_2015_3330" x="18.5996" y="4.16992" width="6.1748" height="8.92285" filterUnits="userSpaceOnUse" color-interpolation-filters="sRGB">
<feFlood flood-opacity="0" result="BackgroundImageFix"/>
<feBlend mode="normal" in="SourceGraphic" in2="BackgroundImageFix" result="shape"/>
<feColorMatrix in="SourceAlpha" type="matrix" values="0 0 0 0 0 0 0 0 0 0 0 0 0 0 0 0 0 0 127 0" result="hardAlpha"/>
<feOffset dx="-1" dy="-1"/>
<feGaussianBlur stdDeviation="1"/>
<feComposite in2="hardAlpha" operator="arithmetic" k2="-1" k3="1"/>
<feColorMatrix type="matrix" values="0 0 0 0 0 0 0 0 0 0 0 0 0 0 0 0 0 0 0.16 0"/>
<feBlend mode="normal" in2="shape" result="effect1_innerShadow_2015_3330"/>
</filter>
<filter id="filter14_i_2015_3330" x="19.6748" y="10.5996" width="8.97949" height="8.02832" filterUnits="userSpaceOnUse" color-interpolation-filters="sRGB">
<feFlood flood-opacity="0" result="BackgroundImageFix"/>
<feBlend mode="normal" in="SourceGraphic" in2="BackgroundImageFix" result="shape"/>
<feColorMatrix in="SourceAlpha" type="matrix" values="0 0 0 0 0 0 0 0 0 0 0 0 0 0 0 0 0 0 127 0" result="hardAlpha"/>
<feOffset dx="-1" dy="-1"/>
<feGaussianBlur stdDeviation="1"/>
<feComposite in2="hardAlpha" operator="arithmetic" k2="-1" k3="1"/>
<feColorMatrix type="matrix" values="0 0 0 0 0 0 0 0 0 0 0 0 0 0 0 0 0 0 0.16 0"/>
<feBlend mode="normal" in2="shape" result="effect1_innerShadow_2015_3330"/>
</filter>
<filter id="filter15_i_2015_3330" x="16.0605" y="7.89258" width="6.92773" height="10.0762" filterUnits="userSpaceOnUse" color-interpolation-filters="sRGB">
<feFlood flood-opacity="0" result="BackgroundImageFix"/>
<feBlend mode="normal" in="SourceGraphic" in2="BackgroundImageFix" result="shape"/>
<feColorMatrix in="SourceAlpha" type="matrix" values="0 0 0 0 0 0 0 0 0 0 0 0 0 0 0 0 0 0 127 0" result="hardAlpha"/>
<feOffset dx="-1" dy="-1"/>
<feGaussianBlur stdDeviation="1"/>
<feComposite in2="hardAlpha" operator="arithmetic" k2="-1" k3="1"/>
<feColorMatrix type="matrix" values="0 0 0 0 0 0 0 0 0 0 0 0 0 0 0 0 0 0 0.16 0"/>
<feBlend mode="normal" in2="shape" result="effect1_innerShadow_2015_3330"/>
</filter>
<filter id="filter16_i_2015_3330" x="17.2256" y="15.9014" width="9.50977" height="8.53809" filterUnits="userSpaceOnUse" color-interpolation-filters="sRGB">
<feFlood flood-opacity="0" result="BackgroundImageFix"/>
<feBlend mode="normal" in="SourceGraphic" in2="BackgroundImageFix" result="shape"/>
<feColorMatrix in="SourceAlpha" type="matrix" values="0 0 0 0 0 0 0 0 0 0 0 0 0 0 0 0 0 0 127 0" result="hardAlpha"/>
<feOffset dx="-1" dy="-1"/>
<feGaussianBlur stdDeviation="1"/>
<feComposite in2="hardAlpha" operator="arithmetic" k2="-1" k3="1"/>
<feColorMatrix type="matrix" values="0 0 0 0 0 0 0 0 0 0 0 0 0 0 0 0 0 0 0.16 0"/>
<feBlend mode="normal" in2="shape" result="effect1_innerShadow_2015_3330"/>
</filter>
<filter id="filter17_i_2015_3330" x="13.2881" y="13.0186" width="7.50684" height="10.7207" filterUnits="userSpaceOnUse" color-interpolation-filters="sRGB">
<feFlood flood-opacity="0" result="BackgroundImageFix"/>
<feBlend mode="normal" in="SourceGraphic" in2="BackgroundImageFix" result="shape"/>
<feColorMatrix in="SourceAlpha" type="matrix" values="0 0 0 0 0 0 0 0 0 0 0 0 0 0 0 0 0 0 127 0" result="hardAlpha"/>
<feOffset dx="-1" dy="-1"/>
<feGaussianBlur stdDeviation="1"/>
<feComposite in2="hardAlpha" operator="arithmetic" k2="-1" k3="1"/>
<feColorMatrix type="matrix" values="0 0 0 0 0 0 0 0 0 0 0 0 0 0 0 0 0 0 0.16 0"/>
<feBlend mode="normal" in2="shape" result="effect1_innerShadow_2015_3330"/>
</filter>
<filter id="filter18_i_2015_3330" x="14.7451" y="20.9639" width="10.3887" height="9.33984" filterUnits="userSpaceOnUse" color-interpolation-filters="sRGB">
<feFlood flood-opacity="0" result="BackgroundImageFix"/>
<feBlend mode="normal" in="SourceGraphic" in2="BackgroundImageFix" result="shape"/>
<feColorMatrix in="SourceAlpha" type="matrix" values="0 0 0 0 0 0 0 0 0 0 0 0 0 0 0 0 0 0 127 0" result="hardAlpha"/>
<feOffset dx="-1" dy="-1"/>
<feGaussianBlur stdDeviation="1"/>
<feComposite in2="hardAlpha" operator="arithmetic" k2="-1" k3="1"/>
<feColorMatrix type="matrix" values="0 0 0 0 0 0 0 0 0 0 0 0 0 0 0 0 0 0 0.16 0"/>
<feBlend mode="normal" in2="shape" result="effect1_innerShadow_2015_3330"/>
</filter>
<filter id="filter19_i_2015_3330" x="10.4053" y="17.75" width="8.23438" height="11.8408" filterUnits="userSpaceOnUse" color-interpolation-filters="sRGB">
<feFlood flood-opacity="0" result="BackgroundImageFix"/>
<feBlend mode="normal" in="SourceGraphic" in2="BackgroundImageFix" result="shape"/>
<feColorMatrix in="SourceAlpha" type="matrix" values="0 0 0 0 0 0 0 0 0 0 0 0 0 0 0 0 0 0 127 0" result="hardAlpha"/>
<feOffset dx="-1" dy="-1"/>
<feGaussianBlur stdDeviation="1"/>
<feComposite in2="hardAlpha" operator="arithmetic" k2="-1" k3="1"/>
<feColorMatrix type="matrix" values="0 0 0 0 0 0 0 0 0 0 0 0 0 0 0 0 0 0 0.16 0"/>
<feBlend mode="normal" in2="shape" result="effect1_innerShadow_2015_3330"/>
</filter>
<filter id="filter20_i_2015_3330" x="8.24805" y="8.20898" width="10.8242" height="44.873" filterUnits="userSpaceOnUse" color-interpolation-filters="sRGB">
<feFlood flood-opacity="0" result="BackgroundImageFix"/>
<feBlend mode="normal" in="SourceGraphic" in2="BackgroundImageFix" result="shape"/>
<feColorMatrix in="SourceAlpha" type="matrix" values="0 0 0 0 0 0 0 0 0 0 0 0 0 0 0 0 0 0 127 0" result="hardAlpha"/>
<feOffset dx="-1" dy="-1"/>
<feGaussianBlur stdDeviation="0.5"/>
<feComposite in2="hardAlpha" operator="arithmetic" k2="-1" k3="1"/>
<feColorMatrix type="matrix" values="0 0 0 0 0 0 0 0 0 0 0 0 0 0 0 0 0 0 0.2 0"/>
<feBlend mode="normal" in2="shape" result="effect1_innerShadow_2015_3330"/>
</filter>
<filter id="filter21_i_2015_3330" x="8.84863" y="0.764648" width="6.19434" height="8.90332" filterUnits="userSpaceOnUse" color-interpolation-filters="sRGB">
<feFlood flood-opacity="0" result="BackgroundImageFix"/>
<feBlend mode="normal" in="SourceGraphic" in2="BackgroundImageFix" result="shape"/>
<feColorMatrix in="SourceAlpha" type="matrix" values="0 0 0 0 0 0 0 0 0 0 0 0 0 0 0 0 0 0 127 0" result="hardAlpha"/>
<feOffset dx="-1" dy="-1"/>
<feGaussianBlur stdDeviation="1"/>
<feComposite in2="hardAlpha" operator="arithmetic" k2="-1" k3="1"/>
<feColorMatrix type="matrix" values="0 0 0 0 0 0 0 0 0 0 0 0 0 0 0 0 0 0 0.16 0"/>
<feBlend mode="normal" in2="shape" result="effect1_innerShadow_2015_3330"/>
</filter>
<filter id="filter22_i_2015_3330" x="10.2598" y="4.87109" width="7.06641" height="8.03418" filterUnits="userSpaceOnUse" color-interpolation-filters="sRGB">
<feFlood flood-opacity="0" result="BackgroundImageFix"/>
<feBlend mode="normal" in="SourceGraphic" in2="BackgroundImageFix" result="shape"/>
<feColorMatrix in="SourceAlpha" type="matrix" values="0 0 0 0 0 0 0 0 0 0 0 0 0 0 0 0 0 0 127 0" result="hardAlpha"/>
<feOffset dx="-1" dy="-1"/>
<feGaussianBlur stdDeviation="1"/>
<feComposite in2="hardAlpha" operator="arithmetic" k2="-1" k3="1"/>
<feColorMatrix type="matrix" values="0 0 0 0 0 0 0 0 0 0 0 0 0 0 0 0 0 0 0.16 0"/>
<feBlend mode="normal" in2="shape" result="effect1_innerShadow_2015_3330"/>
</filter>
<filter id="filter23_i_2015_3330" x="6.22656" y="4.33887" width="6.52832" height="8.57324" filterUnits="userSpaceOnUse" color-interpolation-filters="sRGB">
<feFlood flood-opacity="0" result="BackgroundImageFix"/>
<feBlend mode="normal" in="SourceGraphic" in2="BackgroundImageFix" result="shape"/>
<feColorMatrix in="SourceAlpha" type="matrix" values="0 0 0 0 0 0 0 0 0 0 0 0 0 0 0 0 0 0 127 0" result="hardAlpha"/>
<feOffset dx="-1" dy="-1"/>
<feGaussianBlur stdDeviation="1"/>
<feComposite in2="hardAlpha" operator="arithmetic" k2="-1" k3="1"/>
<feColorMatrix type="matrix" values="0 0 0 0 0 0 0 0 0 0 0 0 0 0 0 0 0 0 0.16 0"/>
<feBlend mode="normal" in2="shape" result="effect1_innerShadow_2015_3330"/>
</filter>
<filter id="filter24_i_2015_3330" x="9.58594" y="9.13184" width="7.9502" height="9.05957" filterUnits="userSpaceOnUse" color-interpolation-filters="sRGB">
<feFlood flood-opacity="0" result="BackgroundImageFix"/>
<feBlend mode="normal" in="SourceGraphic" in2="BackgroundImageFix" result="shape"/>
<feColorMatrix in="SourceAlpha" type="matrix" values="0 0 0 0 0 0 0 0 0 0 0 0 0 0 0 0 0 0 127 0" result="hardAlpha"/>
<feOffset dx="-1" dy="-1"/>
<feGaussianBlur stdDeviation="1"/>
<feComposite in2="hardAlpha" operator="arithmetic" k2="-1" k3="1"/>
<feColorMatrix type="matrix" values="0 0 0 0 0 0 0 0 0 0 0 0 0 0 0 0 0 0 0.16 0"/>
<feBlend mode="normal" in2="shape" result="effect1_innerShadow_2015_3330"/>
</filter>
<filter id="filter25_i_2015_3330" x="4.9668" y="8.52344" width="7.33301" height="9.6748" filterUnits="userSpaceOnUse" color-interpolation-filters="sRGB">
<feFlood flood-opacity="0" result="BackgroundImageFix"/>
<feBlend mode="normal" in="SourceGraphic" in2="BackgroundImageFix" result="shape"/>
<feColorMatrix in="SourceAlpha" type="matrix" values="0 0 0 0 0 0 0 0 0 0 0 0 0 0 0 0 0 0 127 0" result="hardAlpha"/>
<feOffset dx="-1" dy="-1"/>
<feGaussianBlur stdDeviation="1"/>
<feComposite in2="hardAlpha" operator="arithmetic" k2="-1" k3="1"/>
<feColorMatrix type="matrix" values="0 0 0 0 0 0 0 0 0 0 0 0 0 0 0 0 0 0 0.16 0"/>
<feBlend mode="normal" in2="shape" result="effect1_innerShadow_2015_3330"/>
</filter>
<filter id="filter26_i_2015_3330" x="8.80762" y="14.8096" width="8.46484" height="9.59766" filterUnits="userSpaceOnUse" color-interpolation-filters="sRGB">
<feFlood flood-opacity="0" result="BackgroundImageFix"/>
<feBlend mode="normal" in="SourceGraphic" in2="BackgroundImageFix" result="shape"/>
<feColorMatrix in="SourceAlpha" type="matrix" values="0 0 0 0 0 0 0 0 0 0 0 0 0 0 0 0 0 0 127 0" result="hardAlpha"/>
<feOffset dx="-1" dy="-1"/>
<feGaussianBlur stdDeviation="1"/>
<feComposite in2="hardAlpha" operator="arithmetic" k2="-1" k3="1"/>
<feColorMatrix type="matrix" values="0 0 0 0 0 0 0 0 0 0 0 0 0 0 0 0 0 0 0.16 0"/>
<feBlend mode="normal" in2="shape" result="effect1_innerShadow_2015_3330"/>
</filter>
<filter id="filter27_i_2015_3330" x="3.85254" y="14.1504" width="7.88672" height="10.2783" filterUnits="userSpaceOnUse" color-interpolation-filters="sRGB">
<feFlood flood-opacity="0" result="BackgroundImageFix"/>
<feBlend mode="normal" in="SourceGraphic" in2="BackgroundImageFix" result="shape"/>
<feColorMatrix in="SourceAlpha" type="matrix" values="0 0 0 0 0 0 0 0 0 0 0 0 0 0 0 0 0 0 127 0" result="hardAlpha"/>
<feOffset dx="-1" dy="-1"/>
<feGaussianBlur stdDeviation="1"/>
<feComposite in2="hardAlpha" operator="arithmetic" k2="-1" k3="1"/>
<feColorMatrix type="matrix" values="0 0 0 0 0 0 0 0 0 0 0 0 0 0 0 0 0 0 0.16 0"/>
<feBlend mode="normal" in2="shape" result="effect1_innerShadow_2015_3330"/>
</filter>
<filter id="filter28_i_2015_3330" x="7.99512" y="20.1807" width="9.26953" height="10.4932" filterUnits="userSpaceOnUse" color-interpolation-filters="sRGB">
<feFlood flood-opacity="0" result="BackgroundImageFix"/>
<feBlend mode="normal" in="SourceGraphic" in2="BackgroundImageFix" result="shape"/>
<feColorMatrix in="SourceAlpha" type="matrix" values="0 0 0 0 0 0 0 0 0 0 0 0 0 0 0 0 0 0 127 0" result="hardAlpha"/>
<feOffset dx="-1" dy="-1"/>
<feGaussianBlur stdDeviation="1"/>
<feComposite in2="hardAlpha" operator="arithmetic" k2="-1" k3="1"/>
<feColorMatrix type="matrix" values="0 0 0 0 0 0 0 0 0 0 0 0 0 0 0 0 0 0 0.16 0"/>
<feBlend mode="normal" in2="shape" result="effect1_innerShadow_2015_3330"/>
</filter>
<filter id="filter29_i_2015_3330" x="2.56445" y="19.4219" width="8.62793" height="11.3096" filterUnits="userSpaceOnUse" color-interpolation-filters="sRGB">
<feFlood flood-opacity="0" result="BackgroundImageFix"/>
<feBlend mode="normal" in="SourceGraphic" in2="BackgroundImageFix" result="shape"/>
<feColorMatrix in="SourceAlpha" type="matrix" values="0 0 0 0 0 0 0 0 0 0 0 0 0 0 0 0 0 0 127 0" result="hardAlpha"/>
<feOffset dx="-1" dy="-1"/>
<feGaussianBlur stdDeviation="1"/>
<feComposite in2="hardAlpha" operator="arithmetic" k2="-1" k3="1"/>
<feColorMatrix type="matrix" values="0 0 0 0 0 0 0 0 0 0 0 0 0 0 0 0 0 0 0.16 0"/>
<feBlend mode="normal" in2="shape" result="effect1_innerShadow_2015_3330"/>
</filter>
<filter id="filter30_di_2015_3330" x="12.7646" y="31.6074" width="38.8164" height="18.626" filterUnits="userSpaceOnUse" color-interpolation-filters="sRGB">
<feFlood flood-opacity="0" result="BackgroundImageFix"/>
<feColorMatrix in="SourceAlpha" type="matrix" values="0 0 0 0 0 0 0 0 0 0 0 0 0 0 0 0 0 0 127 0" result="hardAlpha"/>
<feOffset dy="-1"/>
<feGaussianBlur stdDeviation="1"/>
<feComposite in2="hardAlpha" operator="out"/>
<feColorMatrix type="matrix" values="0 0 0 0 0.788235 0 0 0 0 0.145098 0 0 0 0 0.145098 0 0 0 0.7 0"/>
<feBlend mode="normal" in2="BackgroundImageFix" result="effect1_dropShadow_2015_3330"/>
<feBlend mode="normal" in="SourceGraphic" in2="effect1_dropShadow_2015_3330" result="shape"/>
<feColorMatrix in="SourceAlpha" type="matrix" values="0 0 0 0 0 0 0 0 0 0 0 0 0 0 0 0 0 0 127 0" result="hardAlpha"/>
<feOffset dx="4" dy="4"/>
<feGaussianBlur stdDeviation="2"/>
<feComposite in2="hardAlpha" operator="arithmetic" k2="-1" k3="1"/>
<feColorMatrix type="matrix" values="0 0 0 0 0 0 0 0 0 0 0 0 0 0 0 0 0 0 0.08 0"/>
<feBlend mode="normal" in2="shape" result="effect2_innerShadow_2015_3330"/>
</filter>
<filter id="filter31_di_2015_3330" x="20.0039" y="25.3252" width="13.2988" height="11.043" filterUnits="userSpaceOnUse" color-interpolation-filters="sRGB">
<feFlood flood-opacity="0" result="BackgroundImageFix"/>
<feColorMatrix in="SourceAlpha" type="matrix" values="0 0 0 0 0 0 0 0 0 0 0 0 0 0 0 0 0 0 127 0" result="hardAlpha"/>
<feOffset dy="-1"/>
<feGaussianBlur stdDeviation="1"/>
<feComposite in2="hardAlpha" operator="out"/>
<feColorMatrix type="matrix" values="0 0 0 0 0.788235 0 0 0 0 0.145098 0 0 0 0 0.145098 0 0 0 0.7 0"/>
<feBlend mode="normal" in2="BackgroundImageFix" result="effect1_dropShadow_2015_3330"/>
<feBlend mode="normal" in="SourceGraphic" in2="effect1_dropShadow_2015_3330" result="shape"/>
<feColorMatrix in="SourceAlpha" type="matrix" values="0 0 0 0 0 0 0 0 0 0 0 0 0 0 0 0 0 0 127 0" result="hardAlpha"/>
<feOffset dx="4" dy="4"/>
<feGaussianBlur stdDeviation="2"/>
<feComposite in2="hardAlpha" operator="arithmetic" k2="-1" k3="1"/>
<feColorMatrix type="matrix" values="0 0 0 0 0 0 0 0 0 0 0 0 0 0 0 0 0 0 0.08 0"/>
<feBlend mode="normal" in2="shape" result="effect2_innerShadow_2015_3330"/>
</filter>
<filter id="filter32_di_2015_3330" x="24.3418" y="18.5156" width="43.4385" height="26.0889" filterUnits="userSpaceOnUse" color-interpolation-filters="sRGB">
<feFlood flood-opacity="0" result="BackgroundImageFix"/>
<feColorMatrix in="SourceAlpha" type="matrix" values="0 0 0 0 0 0 0 0 0 0 0 0 0 0 0 0 0 0 127 0" result="hardAlpha"/>
<feOffset dy="-1"/>
<feGaussianBlur stdDeviation="1"/>
<feComposite in2="hardAlpha" operator="out"/>
<feColorMatrix type="matrix" values="0 0 0 0 0.789862 0 0 0 0 0.146766 0 0 0 0 0.146766 0 0 0 0.7 0"/>
<feBlend mode="normal" in2="BackgroundImageFix" result="effect1_dropShadow_2015_3330"/>
<feBlend mode="normal" in="SourceGraphic" in2="effect1_dropShadow_2015_3330" result="shape"/>
<feColorMatrix in="SourceAlpha" type="matrix" values="0 0 0 0 0 0 0 0 0 0 0 0 0 0 0 0 0 0 127 0" result="hardAlpha"/>
<feOffset dx="4" dy="4"/>
<feGaussianBlur stdDeviation="2"/>
<feComposite in2="hardAlpha" operator="arithmetic" k2="-1" k3="1"/>
<feColorMatrix type="matrix" values="0 0 0 0 0 0 0 0 0 0 0 0 0 0 0 0 0 0 0.08 0"/>
<feBlend mode="normal" in2="shape" result="effect2_innerShadow_2015_3330"/>
</filter>
<linearGradient id="paint0_linear_2015_3330" x1="17.166" y1="51.8185" x2="38.1291" y2="10.6887" gradientUnits="userSpaceOnUse">
<stop stop-color="#FFBB4F"/>
<stop offset="1" stop-color="#AD7317"/>
</linearGradient>
<linearGradient id="paint1_linear_2015_3330" x1="38.4453" y1="6.07211" x2="39.4897" y2="10.9505" gradientUnits="userSpaceOnUse">
<stop stop-color="#FFBB4F"/>
<stop offset="1" stop-color="#AD7317"/>
</linearGradient>
<linearGradient id="paint2_linear_2015_3330" x1="39.553" y1="10.4317" x2="36.8966" y2="16.4186" gradientUnits="userSpaceOnUse">
<stop stop-color="#FFBB4F"/>
<stop offset="1" stop-color="#AD7317"/>
</linearGradient>
<linearGradient id="paint3_linear_2015_3330" x1="35.2161" y1="6.72358" x2="34.4294" y2="14.5395" gradientUnits="userSpaceOnUse">
<stop stop-color="#FFBB4F"/>
<stop offset="1" stop-color="#AD7317"/>
</linearGradient>
<linearGradient id="paint4_linear_2015_3330" x1="36.9633" y1="13.8819" x2="36.071" y2="21.1524" gradientUnits="userSpaceOnUse">
<stop stop-color="#FFBB4F"/>
<stop offset="1" stop-color="#AD7317"/>
</linearGradient>
<linearGradient id="paint5_linear_2015_3330" x1="31.9807" y1="9.51528" x2="31.3383" y2="19.2948" gradientUnits="userSpaceOnUse">
<stop stop-color="#FFBB4F"/>
<stop offset="1" stop-color="#AD7317"/>
</linearGradient>
<linearGradient id="paint6_linear_2015_3330" x1="33.2961" y1="17.8404" x2="31.7417" y2="24.8914" gradientUnits="userSpaceOnUse">
<stop stop-color="#FFBB4F"/>
<stop offset="1" stop-color="#AD7317"/>
</linearGradient>
<linearGradient id="paint7_linear_2015_3330" x1="27.8304" y1="13.8066" x2="27.5618" y2="24.1179" gradientUnits="userSpaceOnUse">
<stop stop-color="#FFBB4F"/>
<stop offset="1" stop-color="#AD7317"/>
</linearGradient>
<linearGradient id="paint8_linear_2015_3330" x1="30.073" y1="22.2626" x2="26.5024" y2="30.6941" gradientUnits="userSpaceOnUse">
<stop stop-color="#FFBB4F"/>
<stop offset="1" stop-color="#AD7317"/>
</linearGradient>
<linearGradient id="paint9_linear_2015_3330" x1="24.4564" y1="17.6986" x2="23.4892" y2="28.6968" gradientUnits="userSpaceOnUse">
<stop stop-color="#FFBB4F"/>
<stop offset="1" stop-color="#AD7317"/>
</linearGradient>
<linearGradient id="paint10_linear_2015_3330" x1="16.8685" y1="53.3768" x2="25.3744" y2="8.00321" gradientUnits="userSpaceOnUse">
<stop stop-color="#FFBB4F"/>
<stop offset="1" stop-color="#AD7317"/>
</linearGradient>
<linearGradient id="paint11_linear_2015_3330" x1="24.3748" y1="3.48421" x2="26.7533" y2="7.86971" gradientUnits="userSpaceOnUse">
<stop stop-color="#FFBB4F"/>
<stop offset="1" stop-color="#AD7317"/>
</linearGradient>
<linearGradient id="paint12_linear_2015_3330" x1="26.6675" y1="7.35441" x2="25.8083" y2="13.8476" gradientUnits="userSpaceOnUse">
<stop stop-color="#FFBB4F"/>
<stop offset="1" stop-color="#AD7317"/>
</linearGradient>
<linearGradient id="paint13_linear_2015_3330" x1="21.4607" y1="5.02037" x2="22.9113" y2="12.7406" gradientUnits="userSpaceOnUse">
<stop stop-color="#FFBB4F"/>
<stop offset="1" stop-color="#AD7317"/>
</linearGradient>
<linearGradient id="paint14_linear_2015_3330" x1="25.1566" y1="11.3945" x2="26.352" y2="18.6213" gradientUnits="userSpaceOnUse">
<stop stop-color="#FFBB4F"/>
<stop offset="1" stop-color="#AD7317"/>
</linearGradient>
<linearGradient id="paint15_linear_2015_3330" x1="19.1451" y1="8.61203" x2="21.2882" y2="18.1754" gradientUnits="userSpaceOnUse">
<stop stop-color="#FFBB4F"/>
<stop offset="1" stop-color="#AD7317"/>
</linearGradient>
<linearGradient id="paint16_linear_2015_3330" x1="22.7565" y1="16.2279" x2="23.2548" y2="23.4309" gradientUnits="userSpaceOnUse">
<stop stop-color="#FFBB4F"/>
<stop offset="1" stop-color="#AD7317"/>
</linearGradient>
<linearGradient id="paint17_linear_2015_3330" x1="16.3734" y1="13.8991" x2="19.0251" y2="23.8672" gradientUnits="userSpaceOnUse">
<stop stop-color="#FFBB4F"/>
<stop offset="1" stop-color="#AD7317"/>
</linearGradient>
<linearGradient id="paint18_linear_2015_3330" x1="20.9118" y1="21.3787" x2="19.8653" y2="30.4751" gradientUnits="userSpaceOnUse">
<stop stop-color="#FFBB4F"/>
<stop offset="1" stop-color="#AD7317"/>
</linearGradient>
<linearGradient id="paint19_linear_2015_3330" x1="14.2348" y1="18.5864" x2="16.4102" y2="29.4106" gradientUnits="userSpaceOnUse">
<stop stop-color="#FFBB4F"/>
<stop offset="1" stop-color="#AD7317"/>
</linearGradient>
<linearGradient id="paint20_linear_2015_3330" x1="17.4191" y1="53.0652" x2="12.7276" y2="7.14026" gradientUnits="userSpaceOnUse">
<stop stop-color="#FFBB4F"/>
<stop offset="1" stop-color="#AD7317"/>
</linearGradient>
<linearGradient id="paint21_linear_2015_3330" x1="10.4899" y1="3.09" x2="14.013" y2="6.62241" gradientUnits="userSpaceOnUse">
<stop stop-color="#FFBB4F"/>
<stop offset="1" stop-color="#AD7317"/>
</linearGradient>
<linearGradient id="paint22_linear_2015_3330" x1="13.7851" y1="6.15278" x2="14.7999" y2="12.6235" gradientUnits="userSpaceOnUse">
<stop stop-color="#FFBB4F"/>
<stop offset="1" stop-color="#AD7317"/>
</linearGradient>
<linearGradient id="paint23_linear_2015_3330" x1="8.12991" y1="5.3887" x2="11.7075" y2="12.3821" gradientUnits="userSpaceOnUse">
<stop stop-color="#FFBB4F"/>
<stop offset="1" stop-color="#AD7317"/>
</linearGradient>
<linearGradient id="paint24_linear_2015_3330" x1="13.4797" y1="10.4549" x2="16.6727" y2="17.0474" gradientUnits="userSpaceOnUse">
<stop stop-color="#FFBB4F"/>
<stop offset="1" stop-color="#AD7317"/>
</linearGradient>
<linearGradient id="paint25_linear_2015_3330" x1="6.92575" y1="9.48862" x2="11.6893" y2="18.0536" gradientUnits="userSpaceOnUse">
<stop stop-color="#FFBB4F"/>
<stop offset="1" stop-color="#AD7317"/>
</linearGradient>
<linearGradient id="paint26_linear_2015_3330" x1="12.5462" y1="15.7695" x2="15.0639" y2="22.5366" gradientUnits="userSpaceOnUse">
<stop stop-color="#FFBB4F"/>
<stop offset="1" stop-color="#AD7317"/>
</linearGradient>
<linearGradient id="paint27_linear_2015_3330" x1="5.76509" y1="15.3442" x2="11.1311" y2="24.1533" gradientUnits="userSpaceOnUse">
<stop stop-color="#FFBB4F"/>
<stop offset="1" stop-color="#AD7317"/>
</linearGradient>
<linearGradient id="paint28_linear_2015_3330" x1="12.236" y1="21.2333" x2="13.8083" y2="30.2536" gradientUnits="userSpaceOnUse">
<stop stop-color="#FFBB4F"/>
<stop offset="1" stop-color="#AD7317"/>
</linearGradient>
<linearGradient id="paint29_linear_2015_3330" x1="5.04169" y1="20.4445" x2="10.1933" y2="30.2096" gradientUnits="userSpaceOnUse">
<stop stop-color="#FFBB4F"/>
<stop offset="1" stop-color="#AD7317"/>
</linearGradient>
<linearGradient id="paint30_linear_2015_3330" x1="12.0002" y1="51.2509" x2="67.0532" y2="51.2509" gradientUnits="userSpaceOnUse">
<stop stop-color="#EEE0BA"/>
<stop offset="0.394231" stop-color="#EBE2C8"/>
<stop offset="1" stop-color="#D6BB72"/>
</linearGradient>
<linearGradient id="paint31_linear_2015_3330" x1="11.9999" y1="32.3811" x2="67.0489" y2="36.3244" gradientUnits="userSpaceOnUse">
<stop stop-color="#F9F2E1"/>
<stop offset="1" stop-color="#E9D19B"/>
</linearGradient>
<linearGradient id="paint32_linear_2015_3330" x1="22.1548" y1="34.6074" x2="33.6776" y2="47.558" gradientUnits="userSpaceOnUse">
<stop stop-color="#E81854"/>
<stop offset="1" stop-color="#971125"/>
</linearGradient>
<linearGradient id="paint33_linear_2015_3330" x1="23.2869" y1="28.3779" x2="28.5555" y2="32.6457" gradientUnits="userSpaceOnUse">
<stop stop-color="#E81854"/>
<stop offset="1" stop-color="#971125"/>
</linearGradient>
<linearGradient id="paint34_linear_2015_3330" x1="32.8461" y1="21.8587" x2="54.4802" y2="40.9945" gradientUnits="userSpaceOnUse">
<stop stop-color="#E81854"/>
<stop offset="1" stop-color="#971125"/>
</linearGradient>
<clipPath id="clip0_2015_3330">
<rect width="18.5435" height="50.428" fill="white" transform="translate(35.9863 2) rotate(39.3672)"/>
</clipPath>
<clipPath id="clip1_2015_3330">
<rect width="18.5435" height="50.428" fill="white" transform="translate(20.8672 0.271484) rotate(22.9779)"/>
</clipPath>
<clipPath id="clip2_2015_3330">
<rect width="18.5435" height="50.428" fill="white" transform="translate(6.21582 1.00195) rotate(6.52731)"/>
</clipPath>
<clipPath id="clip3_2015_3330">
<rect width="55" height="46" fill="white" transform="translate(12 19)"/>
</clipPath>
</defs>
</svg>
