<svg width="16" height="16" viewBox="0 0 16 16" fill="none" xmlns="http://www.w3.org/2000/svg">
<g clip-path="url(#clip0_1191_3130)">
<path d="M13.75 15.25H2.25C1.42 15.25 0.75 14.55 0.75 13.69V7.37C0.75 6.75 1.02 6.16 1.47 5.76L6.72 1.23C7.46 0.59 8.53 0.59 9.27 1.23L14.52 5.76C14.98 6.16 15.24 6.75 15.24 7.37V13.69C15.24 14.55 14.57 15.25 13.74 15.25H13.75Z" stroke="#999999" stroke-width="1.5" stroke-linecap="round" stroke-linejoin="round"/>
<path d="M7.59741 7.22619L10.3918 10.0655L7.99577 12.5L5.20142 9.66071C4.53944 8.9881 4.53944 7.89286 5.20142 7.22024C5.86339 6.54762 6.9413 6.54762 7.60327 7.22024L7.59741 7.22619Z" fill="#999999"/>
<path d="M10.7986 7.21624C11.4606 7.88886 11.4606 8.9841 10.7986 9.65672L8.00423 12.496L5.60823 10.0615L8.40259 7.22219C9.06456 6.54957 10.1425 6.54957 10.8044 7.22219L10.7986 7.21624Z" fill="#999999"/>
</g>
<defs>
<clipPath id="clip0_1191_3130">
<rect width="16" height="16" fill="white"/>
</clipPath>
</defs>
</svg>
